# xmcd
#
# Track frame offsets:
#  150
#  18730
#  33790
#  54363
#  69695
#  82506
#  98259
#  117543
#  135653
#  149449
#  168472
#  185462
#  202708
#  218647
#  231391
#  249701
#  262314
#  274899
#  288672
#  306547
#  318658
#
# Disc length: 4442 seconds
#
# Revision: 0
# Processed by: cddbd v1.5.2PL0 Copyright (c) Steve Scherf et al.
# Submitted via: AltoMP3_Maker 3.0
#
DISCID=3d115815
DTITLE=Maria Muldaur - Southern Winds and Maria Muldaur
DYEAR=1900
DGENRE=
TTITLE0=Maria Muldaur - Make Love to the Music
TTITLE1=Maria Muldaur - Say You Will
TTITLE2=Maria Muldaur - I'll Keep My Light in My Window
TTITLE3=Maria Muldaur - I Got a Man
TTITLE4=Maria Muldaur - Cajun Moon
TTITLE5=Maria Muldaur - I Can't Say No
TTITLE6=Maria Muldaur - Here Is Where Your Love Belongs
TTITLE7=Maria Muldaur - That's the Way Love Is
TTITLE8=Maria Muldaur - Joyful Noise
TTITLE9=Maria Muldaur - My Sister and Brothers
TTITLE10=Maria Muldaur - Any Old Time
TTITLE11=Maria Muldaur - Midnight At The Oasis
TTITLE12=Maria Muldaur - My Tennessee Mountain Home
TTITLE13=Maria Muldaur - I Never Did Sing You A Love Song
TTITLE14=Maria Muldaur - The Work Song
TTITLE15=Maria Muldaur - Don't You Make Me High (Don't You Feel My Leg)
TTITLE16=Maria Muldaur - Walkin' One and Only
TTITLE17=Maria Muldaur - Long Hard Climb
TTITLE18=Maria Muldaur - Three Dollar Bill
TTITLE19=Maria Muldaur - Vaudeville Man
TTITLE20=Maria Muldaur - Mad Mad Me
EXTD=
EXTT0=
EXTT1=
EXTT2=
EXTT3=
EXTT4=
EXTT5=
EXTT6=
EXTT7=
EXTT8=
EXTT9=
EXTT10=
EXTT11=
EXTT12=
EXTT13=
EXTT14=
EXTT15=
EXTT16=
EXTT17=
EXTT18=
EXTT19=
EXTT20=
PLAYORDER=
